<?xml version="1.0" encoding="utf-8"?>
<!-- Generator: Adobe Illustrator 24.1.0, SVG Export Plug-In . SVG Version: 6.00 Build 0)  -->
<svg version="1.1" id="Capa_1" xmlns="http://www.w3.org/2000/svg" xmlns:xlink="http://www.w3.org/1999/xlink" x="0px" y="0px"
	 viewBox="0 0 512 341.3" style="enable-background:new 0 0 512 341.3;" xml:space="preserve">
<style type="text/css">
	.st0{fill:#6DA544;}
	.st1{fill:#FFDA44;}
	.st2{fill:#F0F0F0;}
	.st3{fill:#0052B4;}
</style>
<rect class="st0" width="512" height="341.3"/>
<polygon class="st1" points="256,76.3 384,170.7 256,265 128,170.7 "/>
<circle class="st2" cx="256" cy="170.7" r="53.9"/>
<g>
	<path class="st3" d="M229.1,167.3c-9.4,0-18.4,1.4-26.9,4.1c0.4,29.4,24.3,53.2,53.9,53.2c18.3,0,34.4-9.1,44.1-23
		C283.5,180.7,257.8,167.3,229.1,167.3z"/>
	<path class="st3" d="M308.9,181c0.6-3.3,1-6.8,1-10.3c0-29.8-24.1-53.9-53.9-53.9c-22.2,0-41.3,13.4-49.5,32.6
		c7.3-1.5,14.8-2.3,22.6-2.3C260.4,147.1,288.7,160.1,308.9,181z"/>
</g>
</svg>
