<?xml version="1.0" encoding="utf-8"?>
<!-- Generator: Adobe Illustrator 24.1.0, SVG Export Plug-In . SVG Version: 6.00 Build 0)  -->
<svg version="1.1" id="Capa_1" xmlns="http://www.w3.org/2000/svg" xmlns:xlink="http://www.w3.org/1999/xlink" x="0px" y="0px"
	 viewBox="0 0 512 512" style="enable-background:new 0 0 512 512;" xml:space="preserve">
<style type="text/css">
	.st0{fill:#D80027;}
	.st1{fill:#0052B4;}
	.st2{fill:#FFDA44;}
</style>
<rect y="85.3" class="st0" width="512" height="341.3"/>
<polygon class="st1" points="512,85.3 512,252 0,256.2 0,85.3 "/>
<path class="st2" d="M211.5,204.1c0-12.3-10-22.3-22.3-22.3c-5.7,0-10.9,2.1-14.8,5.7v-13.1h7.4v-14.8h-7.4v-7.4h-14.8v7.4h-7.4
	v14.8h7.4v13.1c-3.9-3.5-9.1-5.7-14.8-5.7c-12.3,0-22.3,10-22.3,22.3c0,6.6,2.9,12.5,7.4,16.6v13.1h74.2v-13.1
	C208.6,216.6,211.5,210.7,211.5,204.1z"/>
</svg>
