<?xml version="1.0" encoding="utf-8"?>
<!-- Generator: Adobe Illustrator 24.1.0, SVG Export Plug-In . SVG Version: 6.00 Build 0)  -->
<svg version="1.1" id="Capa_1" xmlns="http://www.w3.org/2000/svg" xmlns:xlink="http://www.w3.org/1999/xlink" x="0px" y="0px"
	 viewBox="0 0 512 341.4" style="enable-background:new 0 0 512 341.4;" xml:space="preserve">
<style type="text/css">
	.st0{fill:#F0F0F0;}
	.st1{fill:#D80027;}
	.st2{fill:#0052B4;}
	.st3{fill:#FFDA44;}
</style>
<rect class="st0" width="512" height="341.3"/>
<g>
	<rect y="42.7" class="st1" width="512" height="42.7"/>
	<rect y="128" class="st1" width="512" height="42.7"/>
	<rect y="213.4" class="st1" width="512" height="42.7"/>
	<rect y="298.7" class="st1" width="512" height="42.7"/>
</g>
<rect class="st2" width="256" height="183.8"/>
<g>
	<path class="st3" d="M140.9,134.1c-23.3,0-42.2-18.9-42.2-42.2s18.9-42.2,42.2-42.2c7.3,0,14.1,1.8,20.1,5.1
		c-9.4-9.2-22.2-14.8-36.3-14.8C96,40,72.8,63.3,72.8,91.9s23.3,51.9,51.9,51.9c14.1,0,26.9-5.7,36.3-14.8
		C155,132.3,148.2,134.1,140.9,134.1z"/>
	<polygon class="st3" points="152.8,62.2 160.3,77.9 177.2,74 169.6,89.6 183.3,100.4 166.3,104.2 166.4,121.6 152.8,110.7 
		139.3,121.6 139.3,104.2 122.4,100.4 136,89.6 128.4,74 145.3,77.9 	"/>
</g>
</svg>
