<?xml version="1.0" encoding="utf-8"?>
<!-- Generator: Adobe Illustrator 24.1.0, SVG Export Plug-In . SVG Version: 6.00 Build 0)  -->
<svg version="1.1" id="Capa_1" xmlns="http://www.w3.org/2000/svg" xmlns:xlink="http://www.w3.org/1999/xlink" x="0px" y="0px"
	 viewBox="0 0 512 341.4" style="enable-background:new 0 0 512 341.4;" xml:space="preserve">
<style type="text/css">
	.st0{fill:#D80027;}
	.st1{fill:#6DA544;}
	.st2{fill:#F0F0F0;}
	.st3{fill:#FF9811;}
</style>
<polygon class="st0" points="341.3,0 170.7,0 0,0 0,341.4 170.7,341.4 341.3,341.4 512,341.4 512,0 "/>
<rect class="st1" width="170.7" height="341.3"/>
<rect x="170.7" class="st2" width="170.7" height="341.3"/>
<path class="st1" d="M208,170.7c0,26.5,21.5,48,48,48s48-21.5,48-48v-16h-96V170.7z"/>
<path class="st3" d="M320,138.7h-48c0-8.8-7.2-16-16-16s-16,7.2-16,16h-48c0,8.8,7.7,16,16.5,16H208c0,8.8,7.2,16,16,16
	c0,8.8,7.2,16,16,16h32c8.8,0,16-7.2,16-16c8.8,0,16-7.2,16-16h-0.5C312.3,154.7,320,147.5,320,138.7z"/>
</svg>
