<?xml version="1.0" encoding="utf-8"?>
<!-- Generator: Adobe Illustrator 24.1.0, SVG Export Plug-In . SVG Version: 6.00 Build 0)  -->
<svg version="1.1" id="Capa_1" xmlns="http://www.w3.org/2000/svg" xmlns:xlink="http://www.w3.org/1999/xlink" x="0px" y="0px"
	 viewBox="0 0 512 341.3" style="enable-background:new 0 0 512 341.3;" xml:space="preserve">
<style type="text/css">
	.st0{fill:#0052B4;}
	.st1{fill:#D80027;}
	.st2{fill:#F0F0F0;}
</style>
<rect class="st0" width="512" height="341.3"/>
<g>
	<polygon class="st1" points="425.3,148.4 428.7,158.9 439.7,158.9 430.8,165.3 434.2,175.7 425.3,169.3 416.4,175.7 419.8,165.3 
		410.9,158.9 421.9,158.9 	"/>
	<polygon class="st1" points="386.1,223.5 391.2,239.2 407.6,239.2 394.3,248.8 399.4,264.5 386.1,254.8 372.8,264.5 377.9,248.8 
		364.6,239.2 381,239.2 	"/>
	<polygon class="st1" points="387.6,100.7 391.8,113.7 405.5,113.7 394.4,121.8 398.7,134.8 387.6,126.7 376.5,134.8 380.7,121.8 
		369.6,113.7 383.4,113.7 	"/>
	<polygon class="st1" points="349.9,148 355,163.6 371.4,163.6 358.1,173.3 363.2,188.9 349.9,179.3 336.6,188.9 341.7,173.3 
		328.3,163.6 344.8,163.6 	"/>
</g>
<polygon class="st2" points="256,0 256,30.6 210.8,55.7 256,55.7 256,115 196.9,115 256,147.9 256,170.7 229.3,170.7 155.8,129.9 
	155.8,170.7 100.2,170.7 100.2,122.1 12.7,170.7 0,170.7 0,140.1 45.2,115 0,115 0,55.7 59.1,55.7 0,22.8 0,0 26.7,0 100.2,40.9 
	100.2,0 155.8,0 155.8,48.6 243.3,0 "/>
<polygon class="st1" points="144,0 112,0 112,69.4 0,69.4 0,101.4 112,101.4 112,170.7 144,170.7 144,101.4 256,101.4 256,69.4 
	144,69.4 "/>
<polygon class="st0" points="155.8,115 256,170.7 256,155 184.2,115 "/>
<polygon class="st2" points="155.8,115 256,170.7 256,155 184.2,115 "/>
<g>
	<polygon class="st1" points="155.8,115 256,170.7 256,155 184.2,115 	"/>
	<polygon class="st1" points="71.8,115 0,155 0,170.7 0,170.7 100.2,115 	"/>
</g>
<polygon class="st0" points="100.2,55.7 0,0 0,15.8 71.8,55.7 "/>
<polygon class="st2" points="100.2,55.7 0,0 0,15.8 71.8,55.7 "/>
<g>
	<polygon class="st1" points="100.2,55.7 0,0 0,15.8 71.8,55.7 	"/>
	<polygon class="st1" points="184.2,55.7 256,15.8 256,0 256,0 155.8,55.7 	"/>
</g>
</svg>
