<?xml version="1.0" encoding="utf-8"?>
<!-- Generator: Adobe Illustrator 24.1.0, SVG Export Plug-In . SVG Version: 6.00 Build 0)  -->
<svg version="1.1" id="Capa_1" xmlns="http://www.w3.org/2000/svg" xmlns:xlink="http://www.w3.org/1999/xlink" x="0px" y="0px"
	 viewBox="0 0 512 512" style="enable-background:new 0 0 512 512;" xml:space="preserve">
<style type="text/css">
	.st0{fill:#F0F0F0;}
	.st1{fill:#FFDA44;}
	.st2{fill:#6DA544;}
	.st3{fill:#0052B4;}
	.st4{fill:#D80027;}
</style>
<rect y="85.3" class="st0" width="512" height="341.3"/>
<polygon points="114,256 0,141.9 0,370.1 "/>
<polygon class="st1" points="161.2,256 0,94.7 0,141.9 114,256 0,370.1 0,417.2 "/>
<path class="st2" d="M509.8,289.4L509.8,289.4c0.1-0.4,0.8-0.9,2.2-1.3V256v-33.4h-2.2H222.6L85.3,85.3H0v9.4L161.2,256L0,417.2v9.4
	h85.3l137.3-137.3h287.2V289.4z"/>
<polygon class="st3" points="503.2,322.8 236.4,322.8 132.6,426.7 512,426.7 512,322.8 "/>
<polygon class="st4" points="503.2,189.2 512,189.2 512,85.3 132.6,85.3 236.4,189.2 "/>
</svg>
