<?xml version="1.0" encoding="utf-8"?>
<!-- Generator: Adobe Illustrator 24.1.0, SVG Export Plug-In . SVG Version: 6.00 Build 0)  -->
<svg version="1.1" id="Capa_1" xmlns="http://www.w3.org/2000/svg" xmlns:xlink="http://www.w3.org/1999/xlink" x="0px" y="0px"
	 viewBox="0 0 512 512" style="enable-background:new 0 0 512 512;" xml:space="preserve">
<style type="text/css">
	.st0{fill:#F0F0F0;}
	.st1{fill:#338AF3;}
	.st2{fill:#FFDA44;}
</style>
<rect y="85.3" class="st0" width="512" height="341.3"/>
<g>
	<rect y="85.3" class="st1" width="512" height="48.8"/>
	<rect y="182.9" class="st1" width="512" height="48.8"/>
	<rect y="280.4" class="st1" width="512" height="48.8"/>
	<rect y="377.9" class="st1" width="512" height="48.8"/>
</g>
<rect y="85.3" class="st0" width="256" height="195"/>
<polygon class="st2" points="192,182.9 165.8,195.2 179.8,220.5 151.4,215.1 147.8,243.7 128,222.6 108.2,243.7 104.6,215.1 
	76.2,220.5 90.2,195.2 64,182.9 90.2,170.6 76.2,145.2 104.6,150.7 108.2,122 128,143.1 147.8,122 151.4,150.7 179.8,145.2 
	165.8,170.6 "/>
</svg>
