<?xml version="1.0" encoding="utf-8"?>
<!-- Generator: Adobe Illustrator 24.1.0, SVG Export Plug-In . SVG Version: 6.00 Build 0)  -->
<svg version="1.1" id="Capa_1" xmlns="http://www.w3.org/2000/svg" xmlns:xlink="http://www.w3.org/1999/xlink" x="0px" y="0px"
	 viewBox="0 0 512 341.3" style="enable-background:new 0 0 512 341.3;" xml:space="preserve">
<style type="text/css">
	.st0{fill:#D80027;}
	.st1{fill:#0052B4;}
	.st2{fill:#F0F0F0;}
	.st3{fill:#FFDA44;}
</style>
<rect class="st0" width="512" height="341.3"/>
<rect y="96.5" class="st1" width="512" height="148.4"/>
<g>
	<polygon class="st2" points="367.3,200.6 359.3,206.8 362.8,216.4 354.3,210.7 346.3,217 349.1,207.2 340.6,201.5 350.8,201.1 
		353.6,191.3 357.1,200.9 	"/>
	<polygon class="st2" points="346.7,164.9 341.3,173.6 347.9,181.4 338,178.9 332.6,187.6 331.9,177.4 322,174.9 331.4,171.1 
		330.7,160.9 337.3,168.7 	"/>
	<polygon class="st2" points="315.2,138.5 313.1,148.5 321.9,153.6 311.8,154.6 309.7,164.6 305.5,155.3 295.4,156.3 303,149.5 
		298.8,140.2 307.6,145.3 	"/>
	<polygon class="st2" points="276.6,124.4 278,134.5 288,136.3 278.9,140.8 280.3,150.8 273.2,143.5 264,148 268.8,139 261.7,131.6 
		271.8,133.4 	"/>
	<polygon class="st2" points="235.4,124.4 240.2,133.4 250.3,131.6 243.2,139 248,148 238.8,143.5 231.7,150.8 233.1,140.8 
		224,136.3 234,134.5 	"/>
	<polygon class="st2" points="196.8,138.5 204.4,145.3 213.2,140.2 209,149.5 216.6,156.3 206.5,155.3 202.3,164.6 200.2,154.6 
		190.1,153.6 198.9,148.5 	"/>
	<polygon class="st2" points="165.3,164.9 174.7,168.7 181.3,160.9 180.6,171.1 190,174.9 180.1,177.4 179.4,187.6 174,178.9 
		164.1,181.4 170.7,173.6 	"/>
	<polygon class="st2" points="144.7,200.6 154.9,200.9 158.4,191.3 161.2,201.1 171.4,201.5 162.9,207.2 165.7,217 157.7,210.7 
		149.2,216.4 152.7,206.8 	"/>
</g>
<rect class="st3" width="512" height="96.5"/>
</svg>
